<?xml version="1.0" encoding="utf-8"?>
<!-- Generator: Adobe Illustrator 16.0.0, SVG Export Plug-In . SVG Version: 6.00 Build 0)  -->
<!DOCTYPE svg PUBLIC "-//W3C//DTD SVG 1.1//EN" "http://www.w3.org/Graphics/SVG/1.1/DTD/svg11.dtd">
<svg version="1.1" id="Layer_1" xmlns="http://www.w3.org/2000/svg" xmlns:xlink="http://www.w3.org/1999/xlink" x="0px" y="0px"
	 width="32px" height="32px" viewBox="0 0 32 32" enable-background="new 0 0 32 32" xml:space="preserve">
<g>
	<g>
		<path fill="#FFFFFF" d="M1.911,16.179c-1.084,0.568-1.039,1.4,0.098,1.853l3.364,1.331c1.137,0.448,2.856,0.204,3.821-0.55
			L23.807,7.289c0.961-0.757,1.063-0.645,0.229,0.249L12.483,19.902c-0.837,0.892-0.59,1.983,0.55,2.425l0.394,0.153
			c1.14,0.44,3,1.183,4.132,1.643l3.732,1.521c1.133,0.459,2.061,0.842,2.062,0.849c0,0.007,0.006,0.028,0.012,0.03
			s0.273-0.963,0.594-2.142l5.688-20.908c0.321-1.18-0.301-1.681-1.385-1.113L1.911,16.179z"/>
	</g>
	<g>
		<path fill="#FFFFFF" d="M11.146,29.864c-0.067,0.198,2.301-3.429,2.301-3.429c0.669-1.022,0.29-2.242-0.842-2.703l-2.582-1.059
			c-1.132-0.463-1.674,0.08-1.205,1.212C8.818,23.887,11.214,29.66,11.146,29.864z"/>
	</g>
</g>
</svg>
